<svg width="1024" height="1024" viewBox="0 0 1024 1024" fill="none" xmlns="http://www.w3.org/2000/svg">
<path d="M512.5 116.732C715.913 116.732 880.812 284.464 880.812 491.372C880.812 695.17 720.834 860.955 521.647 865.894C508.065 876.999 493.763 888.396 483.785 895.94C463.691 911.133 438.286 928.023 408.154 946.238C383.125 961.367 374.265 965.856 367.21 966.963C362.87 967.644 362.034 967.363 358.894 964.221C353.318 958.639 353.961 954.506 364.009 931.313C380.025 894.342 388.968 866.431 391.424 845.293C247.489 794.352 144.188 655.135 144.188 491.372C144.188 284.464 309.087 116.732 512.5 116.732Z" fill="#1E1E1E"/>
<path d="M572.849 842.683C581.996 841.064 590.729 847.162 592.35 856.303C593.97 865.445 587.869 874.173 578.723 875.794C562.096 878.738 545.104 880.579 527.829 881.271C525.713 882.991 523.601 884.72 521.495 886.419C518.436 888.886 514.774 890.09 511.127 890.129C510.272 893.68 508.277 896.985 505.181 899.415C501.161 902.569 497.394 905.479 494.064 907.998C487.413 913.03 480.231 918.215 472.546 923.542C464.913 928.833 454.436 926.94 449.142 919.313C443.848 911.684 445.74 901.206 453.373 895.915C460.726 890.818 467.528 885.908 473.761 881.192C476.89 878.825 480.49 876.035 484.405 872.963C487.432 870.588 491.023 869.431 494.596 869.391C495.433 865.914 497.371 862.669 500.371 860.25C503.886 857.415 507.441 854.524 510.949 851.654L515.417 848.003L521.186 847.858C538.766 847.422 556.019 845.663 572.849 842.683ZM317.958 808.437C322.586 800.387 332.867 797.612 340.921 802.237C358.887 812.557 377.833 821.303 397.577 828.295L410.212 832.767L408.668 846.078C407.676 854.623 405.787 863.846 403.077 873.791C400.636 882.749 391.389 888.038 382.426 885.598C373.463 883.158 368.179 873.916 370.619 864.958C371.578 861.44 372.381 858.114 373.063 854.977C356.145 848.258 339.805 840.375 324.16 831.388C316.106 826.762 313.329 816.487 317.958 808.437ZM173.449 634.938C181.881 631.048 191.874 634.726 195.768 643.153C213.446 681.413 237.613 715.951 266.814 745.296C273.362 751.878 273.332 762.521 266.748 769.068C260.162 775.615 249.508 775.592 242.957 769.009C210.998 736.893 184.567 699.104 165.229 657.253C161.334 648.823 165.015 638.831 173.449 634.938ZM129 491.569C129 472.018 130.417 452.793 133.152 433.996C134.49 424.808 143.027 418.442 152.22 419.779C161.411 421.116 167.782 429.649 166.445 438.836C163.942 456.035 162.64 473.642 162.64 491.569C162.64 512.829 164.466 533.642 167.962 553.856C169.545 563.004 163.409 571.705 154.257 573.288C145.103 574.869 136.398 568.737 134.815 559.589C130.992 537.49 129 514.758 129 491.569ZM862.36 491.569C862.36 473.642 861.058 456.035 858.555 438.836C857.218 429.649 863.589 421.116 872.78 419.779C881.973 418.442 890.51 424.808 891.848 433.996C894.583 452.793 896 472.018 896 491.569C896 510.81 894.63 529.736 891.979 548.248C890.662 557.438 882.14 563.82 872.945 562.505C863.749 561.189 857.357 552.671 858.674 543.48C861.099 526.543 862.36 509.21 862.36 491.569ZM211.517 249.84C217.218 242.51 227.784 241.188 235.118 246.884C242.453 252.581 243.781 263.142 238.081 270.473C216.641 298.049 199.119 328.933 186.379 362.246C183.061 370.916 173.34 375.26 164.664 371.945C155.987 368.631 151.644 358.914 154.96 350.242C168.896 313.799 188.06 280.01 211.517 249.84ZM789.882 246.884C797.216 241.188 807.782 242.51 813.483 249.84C836.94 280.01 856.104 313.799 870.04 350.242C873.356 358.914 869.013 368.631 860.336 371.945C851.66 375.26 841.939 370.916 838.621 362.246C825.881 328.933 808.359 298.049 786.919 270.473C781.219 263.142 782.547 252.581 789.882 246.884ZM371.132 128.903C379.746 125.427 389.553 129.592 393.031 138.202C396.506 146.81 392.34 156.607 383.727 160.083C350.855 173.346 320.407 191.547 293.273 213.8C286.092 219.689 275.492 218.646 269.6 211.469C263.707 204.292 264.752 193.698 271.932 187.808C301.651 163.435 335.038 143.466 371.132 128.903ZM631.969 138.202C635.447 129.592 645.254 125.427 653.868 128.903C689.962 143.466 723.349 163.435 753.068 187.808C760.248 193.698 761.293 204.292 755.4 211.469C749.508 218.646 738.908 219.689 731.727 213.8C704.593 191.547 674.145 173.346 641.273 160.083C632.66 156.607 628.494 146.81 631.969 138.202ZM512.5 101.545C532.106 101.545 551.382 103.04 570.214 105.932C579.394 107.342 585.69 115.925 584.281 125.101C582.871 134.278 574.284 140.577 565.102 139.167C547.954 136.534 530.389 135.168 512.5 135.168C494.611 135.168 477.046 136.534 459.898 139.167C450.716 140.577 442.129 134.278 440.719 125.101C439.31 115.925 445.606 107.342 454.786 105.932C473.618 103.04 492.894 101.545 512.5 101.545Z" fill="#777777"/>
<path d="M381.852 829.281C391.192 827.577 400.24 833.297 402.058 842.055C404.594 854.264 405.578 865.154 402.213 880.114C399.063 894.116 392.172 911.335 380.465 936.703C379.284 939.262 378.263 941.511 377.382 943.501C382.847 940.746 390.24 936.727 400.759 930.758C431.166 913.503 449.542 897.641 469.416 883.535C478.827 876.855 482.409 873.953 486.971 870.457C491.785 866.768 497.139 862.845 509.426 854.615C517.169 849.429 527.931 851.11 533.462 858.371C538.994 865.632 537.201 875.722 529.457 880.909C517.621 888.837 512.884 892.337 508.779 895.483C504.423 898.821 500.257 902.171 490.215 909.299C469.101 924.285 449.656 940.778 418.597 958.402C405.84 965.641 396.698 970.627 389.707 973.948C382.678 977.286 376.766 979.47 370.591 980.379C368.81 980.641 363.491 981.572 357.829 979.824C352.211 978.088 348.514 974.405 347.241 973.209C345.042 971.143 342.062 967.948 340.247 963.338C338.372 958.573 338.37 953.949 339.042 949.888C340.187 942.975 344.003 934.344 348.836 923.872C360.53 898.531 366.127 883.949 368.491 873.443C370.639 863.894 370.167 857.563 368.228 848.228C366.411 839.47 372.511 830.986 381.852 829.281Z" fill="#777777"/>
<path fill-rule="evenodd" clip-rule="evenodd" d="M483.789 187.019C415.28 198.149 360.201 239.975 329.423 304.241C318.429 327.196 312.666 346.083 308.489 372.843C306.787 383.75 306.437 393.207 306.437 428.297C306.437 456.463 306.944 474.805 307.956 483.179C318.197 567.962 344.937 647.823 383.945 710.138C397.081 731.122 406.798 743.531 420.706 757.085C440.263 776.145 456.953 786.612 475.277 791.308C490.721 795.265 490.446 795.657 482.814 780.527C473.377 761.818 470.132 751.128 469.355 736.191C468.624 722.142 469.899 715.875 474.891 708.97C479.77 702.222 486.154 699.312 495.852 699.418C510.613 699.579 523.602 706.769 546.746 727.593C589.365 765.941 621.208 781.027 659.534 781.027C672.446 781.027 680.812 779.709 692.804 775.784C706.829 771.196 706.845 771.146 696.846 763.47C668.039 741.361 653.226 715.696 658.461 696.962C662.062 684.074 671.985 676.992 686.409 677.016C696.68 677.032 705.512 680.135 724.4 690.361C748.766 703.553 762.275 708.506 781.621 711.341C793.836 713.13 817.779 712.172 826.188 709.557C832.907 707.468 849.024 699.849 848.988 698.778C848.975 698.423 845.51 696.117 841.286 693.653C809.457 675.087 780.159 641.52 759.899 600.406C745.395 570.976 736.088 543.982 731.054 516.743C725.676 487.648 724.661 475.34 723.522 425.438C722.867 396.688 721.925 378.23 720.668 369.413C707.401 276.436 643.43 206.622 555.049 188.664C539.15 185.434 499.219 184.512 483.789 187.019Z" fill="#1E1E1E"/>
<path d="M482.756 153.24C493.465 151.991 507.635 151.805 520.017 152.09C534.248 152.419 550.707 153.487 561.743 155.729C664.818 176.672 738.785 258.405 753.949 364.674C755.541 375.836 756.49 396.376 757.134 424.682L757.555 441.395C758.556 476.651 759.822 487.419 764.115 510.643L764.982 515.096C769.539 537.367 777.51 560.097 790.054 585.552C808.11 622.191 833.35 650.114 858.225 664.624C860.749 666.096 863.261 667.638 865.344 669.024C866.305 669.663 867.651 670.586 868.988 671.624C869.559 672.067 870.877 673.105 872.331 674.527C872.999 675.18 874.498 676.687 876.074 678.841C876.488 679.407 881.512 685.768 882.457 695.593L882.588 697.603V697.642C882.934 707.764 878.681 714.835 877.184 717.152C875.274 720.109 873.31 722.131 872.318 723.102C870.262 725.112 868.352 726.473 867.557 727.029C865.705 728.323 863.887 729.371 862.75 730.004C860.226 731.41 857.259 732.884 854.489 734.194C849.339 736.628 841.877 739.898 836.167 741.673C827.346 744.416 815.323 745.359 806.675 745.705C797.206 746.084 785.813 745.95 776.743 744.622C752.241 741.032 734.89 734.285 708.388 719.937C702.061 716.511 697.696 714.371 694.532 712.996C698.561 719.632 705.932 728.072 717.313 736.807H717.319C719.086 738.163 722.916 741.04 725.876 743.926C727.352 745.365 730.733 748.79 733.421 753.907C736.508 759.783 739.552 769.78 735.779 781.278C732.437 791.46 725.529 797.062 722.343 799.324C718.907 801.763 715.609 803.237 713.872 803.973C710.426 805.433 706.155 806.802 703.26 807.749C687.813 812.804 675.911 814.658 659.531 814.658C609.613 814.657 570.063 793.82 524.252 752.601C513.913 743.298 507.294 738.42 503.028 735.862C503.566 743.937 505.153 750.169 512.833 765.393V765.399C514.346 768.399 516.564 772.688 517.994 776.071C518.685 777.705 520.143 781.267 520.936 785.639C521.578 789.177 523.269 800.892 515.256 812.353C506.628 824.693 493.973 826.756 489.218 827.148C484.195 827.562 479.947 826.849 478.212 826.544C474.536 825.897 469.822 824.632 466.93 823.891C440.932 817.228 419.249 802.626 397.236 781.173C380.969 765.32 369.634 750.657 355.444 727.988C313.424 660.861 285.311 576.124 274.572 487.226L274.126 482.734C273.166 471.22 272.812 452.513 272.812 428.307C272.813 393.771 273.091 381.618 275.269 367.669L276.162 362.172C280.773 335.106 287.384 314.189 299.1 289.726C334.481 215.851 398.682 166.794 478.396 153.844L482.756 153.24ZM555.045 188.675C539.143 185.445 499.217 184.526 483.787 187.033C415.278 198.163 360.197 239.987 329.419 304.252C318.425 327.207 312.667 346.096 308.49 372.856C306.788 383.762 306.435 393.22 306.435 428.307C306.435 456.47 306.94 474.812 307.952 483.187C318.193 567.969 344.937 647.831 383.944 710.146C397.08 731.13 406.799 743.539 420.706 757.092C440.263 776.152 456.953 786.623 475.277 791.319C490.719 795.276 490.447 795.666 482.815 780.536C473.378 761.828 470.13 751.139 469.353 736.203C468.623 722.155 469.898 715.888 474.889 708.983C479.768 702.235 486.153 699.323 495.851 699.428C510.611 699.59 523.601 706.778 546.744 727.6C589.363 765.949 621.205 781.035 659.531 781.035C672.443 781.035 680.813 779.719 692.805 775.795C706.828 771.207 706.842 771.157 696.844 763.482C668.037 741.373 653.225 715.707 658.46 696.972C662.061 684.084 671.985 677.005 686.409 677.029C696.679 677.045 705.512 680.147 724.398 690.373C748.764 703.565 762.277 708.519 781.622 711.354C793.838 713.143 817.775 712.182 826.185 709.568C832.899 707.48 849 699.87 848.986 698.791C848.973 698.436 845.507 696.127 841.283 693.663C809.455 675.097 780.159 641.531 759.899 600.419C745.396 570.99 736.085 543.995 731.051 516.757C725.673 487.662 724.657 475.351 723.518 425.451C722.863 396.701 721.926 378.239 720.668 369.422C707.401 276.446 643.425 206.632 555.045 188.675Z" fill="#1E1E1E"/>
<path fill-rule="evenodd" clip-rule="evenodd" d="M483.789 187.019C415.28 198.149 360.201 239.975 329.423 304.241C318.429 327.196 312.666 346.083 308.489 372.843C306.787 383.75 306.437 393.207 306.437 428.297C306.437 456.463 306.944 474.805 307.956 483.179C318.197 567.962 344.937 647.823 383.945 710.138C397.081 731.122 406.798 743.531 420.706 757.085C440.263 776.145 456.953 786.612 475.277 791.308C490.721 795.265 490.446 795.657 482.814 780.527C473.377 761.818 470.132 751.128 469.355 736.191C468.624 722.142 469.899 715.875 474.891 708.97C479.77 702.222 486.154 699.312 495.852 699.418C510.613 699.579 523.602 706.769 546.746 727.593C589.365 765.941 621.208 781.027 659.534 781.027C672.446 781.027 680.812 779.709 692.804 775.784C706.829 771.196 706.845 771.146 696.846 763.47C668.039 741.361 653.226 715.696 658.461 696.962C662.062 684.074 671.985 676.992 686.409 677.016C696.68 677.032 705.512 680.135 724.4 690.361C748.766 703.553 762.275 708.506 781.621 711.341C793.836 713.13 817.779 712.172 826.188 709.557C832.907 707.468 849.024 699.849 848.988 698.778C848.975 698.423 845.51 696.117 841.286 693.653C809.457 675.087 780.159 641.52 759.899 600.406C745.395 570.976 736.088 543.982 731.054 516.743C725.676 487.648 724.661 475.34 723.522 425.438C722.867 396.688 721.925 378.23 720.668 369.413C707.401 276.436 643.43 206.622 555.049 188.664C539.15 185.434 499.219 184.512 483.789 187.019ZM411.414 329.81C399.727 335.298 389.005 351.245 384.588 369.71C381.461 382.777 381.48 404.151 384.63 417.318C387.315 428.538 392.355 438.61 398.422 444.873C404.698 451.353 409.062 453.276 417.69 453.358C431.285 453.489 442.198 444.878 450.825 427.215C456.587 415.417 458.696 407.087 459.546 392.768C460.654 374.103 456.437 353.668 449.061 341.96C445.812 336.803 438.949 330.723 434.07 328.681C428.15 326.202 418.022 326.707 411.414 329.81ZM559.896 328.787C540.626 335.67 527.264 365.418 528.81 397.997C530.093 425.021 539.274 444.425 554.046 451.332C562.056 455.078 568.575 454.849 577.222 450.519C589.121 444.562 598.944 430.378 603.856 412.061C607.233 399.468 607.254 374.878 603.898 362.377C596.622 335.267 579.132 321.916 559.896 328.787ZM479.307 473.474C471.465 474.434 463.919 477.727 458.366 482.611C452.239 488.004 450.415 492.119 451.082 499.061C451.569 504.15 452.248 505.399 456.73 509.448C466.377 518.163 484.681 521.902 502.56 518.808C519.137 515.94 527.666 509.195 527.513 499.076C527.273 483.155 503.477 470.516 479.307 473.474Z" fill="white"/>
</svg>
